<svg width="512" height="512" viewBox="0 0 512 512" fill="none" xmlns="http://www.w3.org/2000/svg">
<path fill-rule="evenodd" clip-rule="evenodd" d="M256.412 321.179C266.811 320.476 275.677 328.352 276.201 338.758C276.728 349.168 268.711 358.193 258.312 358.895L160.5 358.895L130 338.758L160.5 321.733L242 321.179L256.412 321.179Z" fill="#1BAC81"/>
<path fill-rule="evenodd" clip-rule="evenodd" d="M305.412 239.179C315.811 238.476 324.677 246.352 325.201 256.758C325.728 267.168 317.711 276.193 307.312 276.895L209.5 276.895L179 256.758L209.5 239.733L291 239.179L305.412 239.179Z" fill="#1BAC81"/>
<path fill-rule="evenodd" clip-rule="evenodd" d="M352.412 155.179C362.811 154.476 371.677 162.352 372.201 172.758C372.728 183.168 364.711 192.193 354.312 192.895L256.5 192.895L226 172.758L256.5 155.733L338 155.179L352.412 155.179Z" fill="#1BAC81"/>
</svg>
