<svg width="512" height="512" viewBox="0 0 512 512" fill="none" xmlns="http://www.w3.org/2000/svg">
<path d="M512 256C512 397.385 397.385 512 256 512C114.615 512 0 397.385 0 256C0 114.615 114.615 0 256 0C397.385 0 512 114.615 512 256Z" fill="url(#paint0_radial_1_30)"/>
<path fill-rule="evenodd" clip-rule="evenodd" d="M256.412 321.179C266.811 320.476 275.677 328.352 276.201 338.758C276.728 349.168 268.711 358.193 258.312 358.895L160.5 358.895L130 338.758L160.5 321.733L242 321.179L256.412 321.179Z" fill="#1BAC81"/>
<path fill-rule="evenodd" clip-rule="evenodd" d="M305.412 239.179C315.811 238.476 324.677 246.352 325.201 256.758C325.728 267.168 317.711 276.193 307.312 276.895L209.5 276.895L179 256.758L209.5 239.733L291 239.179L305.412 239.179Z" fill="#1BAC81"/>
<path fill-rule="evenodd" clip-rule="evenodd" d="M352.412 155.179C362.811 154.476 371.677 162.352 372.201 172.758C372.728 183.168 364.711 192.193 354.312 192.895L256.5 192.895L226 172.758L256.5 155.733L338 155.179L352.412 155.179Z" fill="#1BAC81"/>
<defs>
<radialGradient id="paint0_radial_1_30" cx="0" cy="0" r="1" gradientUnits="userSpaceOnUse" gradientTransform="translate(256 256) rotate(90) scale(256)">
<stop stop-color="#58D7B1"/>
<stop offset="1" stop-color="#D9D9D9" stop-opacity="0"/>
</radialGradient>
</defs>
</svg>
